<?xml version="1.0" encoding="utf-8"?>
<!-- Generator: Adobe Illustrator 17.0.0, SVG Export Plug-In . SVG Version: 6.00 Build 0)  -->
<!DOCTYPE svg PUBLIC "-//W3C//DTD SVG 1.1//EN" "http://www.w3.org/Graphics/SVG/1.1/DTD/svg11.dtd">
<svg version="1.1" id="Layer_1" xmlns="http://www.w3.org/2000/svg" xmlns:xlink="http://www.w3.org/1999/xlink" x="0px" y="0px"
	 width="279.974px" height="63.546px" viewBox="174.481 251.511 279.974 63.546"
	 enable-background="new 174.481 251.511 279.974 63.546" xml:space="preserve">
<g>
	<path fill="#0A82BA" d="M256.715,302.507c-2.008,1.673-4.234,2.51-6.68,2.51c-6.435,0-8.964-3.443-7.587-10.329
		c1.326-6.628,5.463-9.943,12.413-9.943c1.931,0,3.694,0.193,5.29,0.58l-0.811,4.054c-1.596-0.386-3.23-0.58-4.904-0.58
		c-3.797,0-6.088,1.963-6.873,5.889c-0.836,4.183,0.386,6.274,3.668,6.274c2.188,0,4.286-0.837,6.294-2.51L256.715,302.507z"/>
	<path fill="#0A82BA" d="M260.846,294.881c1.377-6.886,5.348-10.329,11.912-10.329s9.157,3.443,7.78,10.329
		c-1.377,6.873-5.348,10.31-11.912,10.31C262.088,305.191,259.495,301.754,260.846,294.881z M269.438,301.156
		c3.153,0,5.154-2.117,6.004-6.352c0.824-4.131-0.341-6.197-3.494-6.197c-3.153,0-5.142,2.066-5.966,6.197
		C265.132,299.039,266.284,301.156,269.438,301.156z"/>
	<path fill="#0A82BA" d="M282.372,305.017l4.054-20.271h4.537l-0.734,6.603c2.317-4.402,4.942-6.603,7.877-6.603
		c3.861,0,5.348,2.214,4.46,6.642c2.587-4.428,5.335-6.642,8.244-6.642c4.145,0,5.702,2.568,4.672,7.703l-2.51,12.568h-5.116
		l2.548-12.761c0.45-2.253-0.083-3.378-1.603-3.378c-2.162,0-4.376,2.162-6.641,6.487l-1.931,9.653h-5.116l2.548-12.704
		c0.45-2.291-0.071-3.436-1.564-3.436c-2.265,0-4.492,2.162-6.68,6.487l-1.931,9.653h-5.114V305.017z"/>
	<path fill="#0A82BA" d="M321.852,284.746h4.537l-0.386,4.827c2.175-3.218,4.846-4.827,8.012-4.827c4.478,0,6.094,3.115,4.846,9.344
		c-1.455,7.285-5.483,10.927-12.085,10.927c-1.249,0-2.523-0.058-3.823-0.174l-1.506,7.51h-5.116L321.852,284.746z M323.86,300.326
		c1.094,0.373,2.414,0.56,3.958,0.56c3.089,0,5.084-2.246,5.985-6.738c0.682-3.436-0.116-5.155-2.394-5.155
		c-2.111,0-4.202,1.634-6.274,4.904L323.86,300.326z"/>
	<path fill="#0A82BA" d="M360.483,290.808c-0.811,4.042-3.939,6.063-9.382,6.063h-5.078c-0.54,2.729,0.966,4.093,4.518,4.093
		c2.69,0,5.226-0.837,7.607-2.51l-0.811,4.054c-2.124,1.673-4.788,2.51-7.993,2.51c-6.705,0-9.369-3.456-7.992-10.367
		c1.326-6.603,5.225-9.904,11.699-9.904C358.817,284.746,361.295,286.767,360.483,290.808z M346.776,293.125h5.116
		c2.124,0,3.334-0.727,3.63-2.182c0.283-1.454-0.812-2.182-3.282-2.182C349.408,288.761,347.588,290.216,346.776,293.125z"/>
	<path fill="#0A82BA" d="M361.41,305.017l4.055-20.271h4.537l-0.792,6.835c2.51-4.556,5.65-6.835,9.421-6.835
		c3.9,0,5.412,2.195,4.537,6.583l-2.741,13.688h-5.116l2.741-13.746c0.322-1.596-0.438-2.394-2.277-2.394
		c-2.433,0-4.865,2.143-7.298,6.429l-1.95,9.711L361.41,305.017L361.41,305.017z"/>
	<path fill="#0A82BA" d="M385.446,304.052l0.85-4.248c2.072,0.901,4.582,1.352,7.529,1.352c2.2,0,3.442-0.708,3.726-2.124
		c0.258-1.287-0.353-1.931-1.834-1.931h-3.668c-4.118,0-5.766-2.06-4.942-6.178c0.85-4.247,4.279-6.371,10.29-6.371
		c2.549,0,4.871,0.386,6.97,1.158l-0.85,4.248c-2.072-0.901-4.428-1.352-7.066-1.352c-2.767,0-4.292,0.708-4.575,2.124
		c-0.258,1.287,0.418,1.931,2.027,1.931h3.282c4.504,0,6.345,2.06,5.521,6.178c-0.85,4.247-4.145,6.371-9.885,6.371
		C390.002,305.21,387.544,304.824,385.446,304.052z"/>
	<path fill="#0A82BA" d="M423.131,305.017h-4.536l0.463-5.213c-2.214,3.475-4.839,5.213-7.877,5.213
		c-4.736,0-6.448-3.289-5.135-9.865c1.39-6.938,5.592-10.406,12.606-10.406c2.355,0,5.142,0.277,8.359,0.831L423.131,305.017z
		 M421.143,289.341c-0.772-0.309-2.059-0.463-3.861-0.463c-3.281,0-5.334,2.079-6.158,6.236c-0.76,3.771-0.129,5.656,1.892,5.656
		c2.497,0,4.801-1.763,6.912-5.289L421.143,289.341z"/>
	<path fill="#0A82BA" d="M437.128,284.746l-4.054,20.271h-5.116l4.054-20.271H437.128z M438.596,277.41l-0.812,4.054h-5.116
		l0.811-4.054H438.596z"/>
	<path fill="#0A82BA" d="M437.9,305.017l4.054-20.271h4.537l-0.714,6.448c2.291-4.299,6.052-6.448,8.678-6.448l-0.869,4.325
		c-2.548,0-6.29,2.079-8.62,6.236l-1.949,9.711H437.9V305.017z"/>
</g>
<path opacity="0.4" fill="#0A82BA" enable-background="new    " d="M238.319,262.517l-11.667,50.054h-40.62
	c-2.426,1.989-3.42,2.486-3.42,2.486h46.17l12.247-52.54L238.319,262.517L238.319,262.517z"/>
<path opacity="0.7" fill="#0A82BA" enable-background="new    " d="M234.642,257.191l-11.503,49.346h-40.163
	c-3.047,2.585-4.267,3.195-4.267,3.195h46.167l12.249-52.541L234.642,257.191L234.642,257.191z"/>
<path fill="#0A82BA" d="M220.651,304.05l12.249-52.539h-18.604c0,0-16.034,30.396-29.249,43.546
	c-7.787,7.747-10.566,8.993-10.566,8.993H220.651z"/>
</svg>
