<?xml version="1.0" encoding="utf-8"?>
<!-- Generator: Adobe Illustrator 17.0.0, SVG Export Plug-In . SVG Version: 6.00 Build 0)  -->
<!DOCTYPE svg PUBLIC "-//W3C//DTD SVG 1.1//EN" "http://www.w3.org/Graphics/SVG/1.1/DTD/svg11.dtd">
<svg version="1.1" id="Layer_1" xmlns="http://www.w3.org/2000/svg" xmlns:xlink="http://www.w3.org/1999/xlink" x="0px" y="0px"
	 width="25.02px" height="25.02px" viewBox="10.188 5.256 25.02 25.02" enable-background="new 10.188 5.256 25.02 25.02"
	 xml:space="preserve">
<path fill="#0A82BA" d="M19.944,11.628l-6.336-6.372L12.24,6.624c-1.332,1.332-2.052,3.096-2.052,4.968s0.72,3.636,2.052,4.968
	l11.664,11.664c1.332,1.332,3.096,2.052,4.968,2.052c1.872,0,3.636-0.72,4.968-2.052l1.368-1.368l-6.336-6.3l-0.648,0.648
	c-0.504,0.504-1.188,0.792-1.908,0.792c-0.72,0-1.404-0.288-1.908-0.792l-5.076-5.112c-1.044-1.044-1.044-2.772,0-3.816
	L19.944,11.628z M32.58,27.036c-1.008,1.008-2.304,1.548-3.708,1.548c-1.404,0-2.736-0.54-3.708-1.548l-11.7-11.7
	c-1.008-1.008-1.548-2.304-1.548-3.708s0.54-2.736,1.548-3.708l0.108-0.108L17.46,11.7c-0.468,0.72-0.756,1.584-0.756,2.484
	c0,1.188,0.468,2.34,1.332,3.168l5.076,5.076c0.864,0.864,1.98,1.332,3.168,1.332c0.9,0,1.764-0.252,2.484-0.756l3.888,3.888
	L32.58,27.036z"/>
</svg>
